<mxfile modified="2022-08-10T12:21:15.998Z" host="app.diagrams.net" agent="5.0 (Macintosh; Intel Mac OS X 10_14_6) AppleWebKit/537.36 (KHTML, like Gecko) Chrome/103.0.5060.114 Safari/537.36" etag="QCPQIOONVognR91hwzZJ" version="20.2.3" type="github">
  <diagram id="f106602c-feb2-e66a-4537-3a34d633f6aa" name="Page-1">
    <mxGraphModel dx="2146" dy="1041" grid="1" gridSize="10" guides="1" tooltips="1" connect="1" arrows="1" fold="1" page="1" pageScale="1" pageWidth="1169" pageHeight="827" background="none" math="0" shadow="0">
      <root>
        <mxCell id="0" />
        <mxCell id="1" parent="0" />
        <mxCell id="14" value="&lt;b&gt;Google &lt;/b&gt;Cloud Platform" style="fillColor=#F6F6F6;strokeColor=none;shadow=0;gradientColor=none;fontSize=14;align=left;spacing=10;fontColor=#717171;9E9E9E;verticalAlign=top;spacingTop=-4;fontStyle=0;spacingLeft=40;html=1;container=0;" parent="1" vertex="1">
          <mxGeometry x="383" y="96" width="507" height="224" as="geometry" />
        </mxCell>
        <mxCell id="997" value="API Requests&lt;br&gt;periodically" style="rounded=1;absoluteArcSize=1;arcSize=2;html=1;strokeColor=none;gradientColor=none;shadow=0;dashed=0;fontSize=12;fontColor=#9E9E9E;align=left;verticalAlign=top;spacing=10;spacingTop=-4;fillColor=#F1F8E9;" parent="1" vertex="1">
          <mxGeometry x="280" y="105" width="90" height="205" as="geometry" />
        </mxCell>
        <mxCell id="818" value="Architecture: Federate API data to BigQuery periodically" style="fillColor=#4DA1F5;strokeColor=none;shadow=1;gradientColor=none;fontSize=14;align=left;spacingLeft=50;fontColor=#ffffff;html=1;" parent="1" vertex="1">
          <mxGeometry x="260" y="40" width="650" height="40" as="geometry" />
        </mxCell>
        <mxCell id="01PqpwICIjHPBsmCr5HL-1007" value="Cloud Scheduler" style="html=1;fillColor=#5184F3;strokeColor=none;verticalAlign=top;labelPosition=center;verticalLabelPosition=bottom;align=center;fontSize=11;fontStyle=1;fontColor=#999999;shape=mxgraph.gcp2.cloud_scheduler" parent="1" vertex="1">
          <mxGeometry x="443" y="152" width="30" height="34.5" as="geometry" />
        </mxCell>
        <mxCell id="01PqpwICIjHPBsmCr5HL-1010" value="TMBD API" style="strokeColor=#dddddd;shadow=1;strokeWidth=1;rounded=1;absoluteArcSize=1;arcSize=2;labelPosition=center;verticalLabelPosition=middle;align=center;verticalAlign=bottom;spacingLeft=0;fontColor=#999999;fontSize=12;whiteSpace=wrap;spacingBottom=2;" parent="1" vertex="1">
          <mxGeometry x="290" y="203" width="70" height="85" as="geometry" />
        </mxCell>
        <mxCell id="01PqpwICIjHPBsmCr5HL-1011" value="" style="sketch=0;dashed=0;connectable=0;html=1;fillColor=#757575;strokeColor=none;shape=mxgraph.gcp2.database;part=1;" parent="01PqpwICIjHPBsmCr5HL-1010" vertex="1">
          <mxGeometry x="0.5" width="50" height="45" relative="1" as="geometry">
            <mxPoint x="-25" y="12.5" as="offset" />
          </mxGeometry>
        </mxCell>
        <mxCell id="01PqpwICIjHPBsmCr5HL-1012" value="" style="edgeStyle=orthogonalEdgeStyle;fontSize=12;html=1;endArrow=blockThin;endFill=1;rounded=0;strokeWidth=2;endSize=4;startSize=4;dashed=0;strokeColor=#4284F3;entryX=1;entryY=0.5;entryDx=0;entryDy=0;exitX=0;exitY=0.5;exitDx=0;exitDy=0;" parent="1" source="01PqpwICIjHPBsmCr5HL-1001" target="01PqpwICIjHPBsmCr5HL-1010" edge="1">
          <mxGeometry width="100" relative="1" as="geometry">
            <mxPoint x="430" y="270" as="sourcePoint" />
            <mxPoint x="530" y="270" as="targetPoint" />
          </mxGeometry>
        </mxCell>
        <mxCell id="15" value="" style="shape=mxgraph.gcp2.google_cloud_platform;fillColor=#F6F6F6;strokeColor=none;shadow=0;gradientColor=none;" parent="1" vertex="1">
          <mxGeometry x="401" y="106" width="23" height="20" as="geometry">
            <mxPoint x="20" y="10" as="offset" />
          </mxGeometry>
        </mxCell>
        <mxCell id="01PqpwICIjHPBsmCr5HL-1008" value="" style="strokeColor=#dddddd;shadow=1;strokeWidth=1;rounded=1;absoluteArcSize=1;arcSize=2;" parent="1" vertex="1">
          <mxGeometry x="757" y="215.5" width="120" height="60" as="geometry" />
        </mxCell>
        <mxCell id="01PqpwICIjHPBsmCr5HL-1009" value="BigQuery" style="sketch=0;dashed=0;connectable=0;html=1;fillColor=#5184F3;strokeColor=none;shape=mxgraph.gcp2.hexIcon;prIcon=bigquery;part=1;labelPosition=right;verticalLabelPosition=middle;align=left;verticalAlign=middle;spacingLeft=5;fontColor=#999999;fontSize=12;" parent="01PqpwICIjHPBsmCr5HL-1008" vertex="1">
          <mxGeometry y="0.5" width="44" height="39" relative="1" as="geometry">
            <mxPoint x="5" y="-19.5" as="offset" />
          </mxGeometry>
        </mxCell>
        <mxCell id="01PqpwICIjHPBsmCr5HL-1001" value="" style="strokeColor=#dddddd;shadow=1;strokeWidth=1;rounded=1;absoluteArcSize=1;arcSize=2;" parent="1" vertex="1">
          <mxGeometry x="401" y="215.5" width="120" height="60" as="geometry" />
        </mxCell>
        <mxCell id="01PqpwICIjHPBsmCr5HL-1002" value="Cloud&#xa;Functions" style="sketch=0;dashed=0;connectable=0;html=1;fillColor=#5184F3;strokeColor=none;shape=mxgraph.gcp2.hexIcon;prIcon=cloud_functions;part=1;labelPosition=right;verticalLabelPosition=middle;align=left;verticalAlign=middle;spacingLeft=5;fontColor=#999999;fontSize=12;" parent="01PqpwICIjHPBsmCr5HL-1001" vertex="1">
          <mxGeometry y="0.5" width="44" height="39" relative="1" as="geometry">
            <mxPoint x="5" y="-19.5" as="offset" />
          </mxGeometry>
        </mxCell>
        <mxCell id="W_Ei5YvtAszf8A6RDtzZ-997" value="" style="edgeStyle=orthogonalEdgeStyle;fontSize=12;html=1;endArrow=blockThin;endFill=1;rounded=0;strokeWidth=2;endSize=4;startSize=4;dashed=0;strokeColor=#4284F3;entryX=0;entryY=0.5;entryDx=0;entryDy=0;exitX=1;exitY=0.5;exitDx=0;exitDy=0;" parent="1" source="01PqpwICIjHPBsmCr5HL-1001" target="W_Ei5YvtAszf8A6RDtzZ-998" edge="1">
          <mxGeometry width="100" relative="1" as="geometry">
            <mxPoint x="454" y="283" as="sourcePoint" />
            <mxPoint x="370" y="282.5" as="targetPoint" />
          </mxGeometry>
        </mxCell>
        <mxCell id="W_Ei5YvtAszf8A6RDtzZ-998" value="" style="strokeColor=#dddddd;shadow=1;strokeWidth=1;rounded=1;absoluteArcSize=1;arcSize=2;" parent="1" vertex="1">
          <mxGeometry x="577" y="215.5" width="110" height="60" as="geometry" />
        </mxCell>
        <mxCell id="W_Ei5YvtAszf8A6RDtzZ-999" value="Cloud&#xa;Pub/Sub" style="sketch=0;dashed=0;connectable=0;html=1;fillColor=#5184F3;strokeColor=none;shape=mxgraph.gcp2.hexIcon;prIcon=cloud_pubsub;part=1;labelPosition=right;verticalLabelPosition=middle;align=left;verticalAlign=middle;spacingLeft=5;fontColor=#999999;fontSize=12;" parent="W_Ei5YvtAszf8A6RDtzZ-998" vertex="1">
          <mxGeometry y="0.5" width="44" height="39" relative="1" as="geometry">
            <mxPoint x="5" y="-19.5" as="offset" />
          </mxGeometry>
        </mxCell>
        <mxCell id="W_Ei5YvtAszf8A6RDtzZ-1000" value="" style="edgeStyle=orthogonalEdgeStyle;fontSize=12;html=1;endArrow=blockThin;endFill=1;rounded=0;strokeWidth=2;endSize=4;startSize=4;dashed=0;strokeColor=#4284F3;exitX=1;exitY=0.5;exitDx=0;exitDy=0;entryX=0;entryY=0.5;entryDx=0;entryDy=0;" parent="1" source="W_Ei5YvtAszf8A6RDtzZ-998" target="01PqpwICIjHPBsmCr5HL-1008" edge="1">
          <mxGeometry width="100" relative="1" as="geometry">
            <mxPoint x="561" y="256" as="sourcePoint" />
            <mxPoint x="790" y="250" as="targetPoint" />
          </mxGeometry>
        </mxCell>
        <mxCell id="W_Ei5YvtAszf8A6RDtzZ-1002" value="" style="shape=image;html=1;verticalAlign=top;verticalLabelPosition=bottom;labelBackgroundColor=#ffffff;imageAspect=0;aspect=fixed;image=https://cdn4.iconfinder.com/data/icons/scripting-and-programming-languages/512/660277-Python_logo-128.png" parent="1" vertex="1">
          <mxGeometry x="427" y="260" width="68" height="68" as="geometry" />
        </mxCell>
        <mxCell id="W_Ei5YvtAszf8A6RDtzZ-1003" value="" style="shape=image;verticalLabelPosition=bottom;labelBackgroundColor=default;verticalAlign=top;aspect=fixed;imageAspect=0;image=https://beyondjapan.com/cms/wp-content/uploads/2020/04/0_3i0MOCi2wHX607Jp.png;" parent="1" vertex="1">
          <mxGeometry x="740" y="98" width="135" height="67.5" as="geometry" />
        </mxCell>
        <mxCell id="W_Ei5YvtAszf8A6RDtzZ-1005" value="Infrastructure as a code" style="text;html=1;strokeColor=none;fillColor=none;align=center;verticalAlign=middle;whiteSpace=wrap;rounded=0;" parent="1" vertex="1">
          <mxGeometry x="740" y="154.25" width="140" height="20" as="geometry" />
        </mxCell>
      </root>
    </mxGraphModel>
  </diagram>
</mxfile>
